<?xml version="1.0" encoding="UTF-8" standalone="no" ?>
<!DOCTYPE svg PUBLIC "-//W3C//DTD SVG 1.1//EN" "http://www.w3.org/Graphics/SVG/1.1/DTD/svg11.dtd">
<svg xmlns="http://www.w3.org/2000/svg" xmlns:xlink="http://www.w3.org/1999/xlink" version="1.1" width="150" height="150" viewBox="0 0 150 150" xml:space="preserve">
<desc>Created with Fabric.js 4.6.0</desc>
<defs>
</defs>
<g transform="matrix(0 1 -1 0 75 75)" id="uh9xE-APJEatL5j1OWE6C"  >
<path style="stroke: rgb(0,0,0); stroke-width: 1; stroke-dasharray: none; stroke-linecap: butt; stroke-dashoffset: 0; stroke-linejoin: miter; stroke-miterlimit: 4; fill: none; fill-rule: nonzero; opacity: 1;" vector-effect="non-scaling-stroke"  transform=" translate(-25, -75)" d="M 0 1.2 C 0 0.5369999999999999 0.4477 0 1 0 L 49 0 C 49.5523 0 50 0.537 50 1.2 L 50 120 C 50 136.56 38.8 150 25 150 C 11.2 150 0 136.56 0 120 z" stroke-linecap="round" />
</g>
<g transform="matrix(1 0 0 1 32.5 45)" id="eKl0jlm2FpMMKQqOjRo1W"  >
<path style="stroke: rgb(0,0,0); stroke-width: 1; stroke-dasharray: none; stroke-linecap: butt; stroke-dashoffset: 0; stroke-linejoin: miter; stroke-miterlimit: 4; fill: none; fill-rule: nonzero; opacity: 1;" vector-effect="non-scaling-stroke"  transform=" translate(-2.5, -5)" d="M 0 0 L 5 0 L 5 10 L 0 10 z" stroke-linecap="round" />
</g>
<g transform="matrix(1 0 0 1 32.5 37.5)" id="AqzNv5nOjEUEDPkC_auqa"  >
<path style="stroke: rgb(0,0,0); stroke-width: 1; stroke-dasharray: none; stroke-linecap: butt; stroke-dashoffset: 0; stroke-linejoin: miter; stroke-miterlimit: 4; fill: rgb(0,0,0); fill-rule: nonzero; opacity: 1;" vector-effect="non-scaling-stroke"  transform=" translate(-0.5, -2.5)" d="M 0 0 L 1 0 L 1 5 L 0 5 z" stroke-linecap="round" />
</g>
</svg>